<svg width="262" height="28" fill="none" xmlns="http://www.w3.org/2000/svg"><path d="M45.818 6.346h11.159v1.006H46.958v5.636h5.3c1.834 0 3.228.373 4.182 1.118.954.745 1.431 1.841 1.431 3.287 0 1.491-.507 2.632-1.52 3.422-1.014.79-2.483 1.185-4.406 1.185h-6.127V6.346zm6.15 14.692c1.565 0 2.75-.298 3.555-.894.805-.611 1.208-1.513 1.208-2.706 0-2.34-1.588-3.51-4.764-3.51h-5.009v7.11h5.01zM70.73 10.327l-5.993 13.26c-.447 1.03-.969 1.76-1.565 2.192-.582.433-1.275.649-2.08.649-.537 0-1.044-.09-1.52-.269a3.23 3.23 0 01-1.186-.782l.56-.85a2.917 2.917 0 002.168.917c.567 0 1.052-.157 1.454-.47.403-.313.775-.85 1.118-1.61l.626-1.409-5.255-11.628h1.185l4.674 10.443 4.674-10.443h1.14zM84 21.016v3.891h-1.052V22H71.901v2.907h-1.073v-3.891h.693c.79-.045 1.327-.656 1.61-1.834.298-1.192.507-2.862.626-5.009l.156-3.846h8.208v10.689h1.878zm-9.214-6.776c-.075 1.774-.224 3.25-.448 4.428-.223 1.178-.626 1.96-1.207 2.348h7.871v-9.683H74.92l-.134 2.907zm17.19.336c1.445.014 2.549.335 3.309.961.76.611 1.14 1.513 1.14 2.706 0 1.238-.402 2.184-1.207 2.84-.805.656-1.976.977-3.511.962L87.3 22V10.327h1.118v4.204l3.556.045zm-.291 6.574c1.177.015 2.072-.223 2.683-.715.611-.492.917-1.223.917-2.192 0-.94-.298-1.632-.895-2.08-.596-.462-1.498-.708-2.706-.738l-3.264-.022v5.702l3.264.045zm18.457.94c-1.133 0-2.146-.254-3.041-.76a5.48 5.48 0 01-2.102-2.103c-.507-.91-.76-1.93-.76-3.064 0-1.148.253-2.169.76-3.063a5.285 5.285 0 012.102-2.102c.895-.507 1.908-.76 3.041-.76.94 0 1.789.186 2.55.558a4.523 4.523 0 011.878 1.588l-.827.604a3.865 3.865 0 00-1.566-1.297 4.578 4.578 0 00-2.035-.447c-.909 0-1.729.208-2.459.626a4.387 4.387 0 00-1.7 1.722c-.403.745-.604 1.602-.604 2.571 0 .97.201 1.827.604 2.572a4.546 4.546 0 001.7 1.744c.73.403 1.55.604 2.459.604.746 0 1.424-.141 2.035-.425a4.043 4.043 0 001.566-1.32l.827.605a4.688 4.688 0 01-1.878 1.61c-.761.357-1.61.537-2.55.537z" fill="#161D35"/><path d="M140.325 16.007c0 1.848-.619 3.302-1.856 4.36-1.223 1.059-2.975 1.663-5.256 1.812v4.16h-2.638V22.2c-2.281-.149-4.033-.753-5.256-1.811-1.222-1.059-1.833-2.52-1.833-4.383 0-1.849.611-3.288 1.833-4.316 1.223-1.044 2.975-1.64 5.256-1.79V5.408h2.638v4.495c2.281.149 4.033.745 5.256 1.789 1.237 1.043 1.856 2.482 1.856 4.316zm-14.089 0c0 1.148.351 2.042 1.051 2.683.716.641 1.812 1.029 3.288 1.163v-7.58c-1.476.119-2.572.491-3.288 1.117-.7.627-1.051 1.499-1.051 2.617zm6.977 3.846c2.922-.268 4.383-1.55 4.383-3.846 0-1.133-.365-2.005-1.095-2.617-.716-.626-1.812-.998-3.288-1.118v7.581zm9.821-9.795h2.795v7.872l6.597-7.872h2.55V22h-2.796v-7.872L145.606 22h-2.572V10.058zm15.702 0h2.795v4.853h6.016v-4.853h2.795V22h-2.795v-4.718h-6.016V22h-2.795V10.058zm19.802-.134c1.76 0 3.101.425 4.026 1.275.939.835 1.408 2.102 1.408 3.802V22h-2.638v-1.454c-.343.522-.835.925-1.476 1.208-.626.268-1.387.402-2.281.402-.895 0-1.677-.148-2.348-.447-.671-.313-1.193-.738-1.566-1.274a3.343 3.343 0 01-.536-1.857c0-1.073.395-1.93 1.185-2.571.805-.656 2.065-.984 3.779-.984h3.086v-.179c0-.835-.253-1.476-.76-1.923-.492-.447-1.23-.671-2.214-.671-.671 0-1.334.104-1.99.313-.641.209-1.186.5-1.633.872l-1.096-2.035c.627-.477 1.379-.842 2.259-1.096a10.05 10.05 0 012.795-.38zm-.38 10.198c.701 0 1.32-.157 1.856-.47a2.65 2.65 0 001.163-1.387V16.88h-2.885c-1.61 0-2.415.53-2.415 1.588 0 .507.201.91.604 1.207.403.299.962.448 1.677.448zm9.274-10.064h2.795v4.853h6.015v-4.853h2.796V22h-2.796v-4.718h-6.015V22h-2.795V10.058zm20.786 12.099c-1.237 0-2.348-.261-3.332-.783a5.765 5.765 0 01-2.303-2.17c-.552-.939-.828-1.997-.828-3.175 0-1.178.276-2.229.828-3.153a5.805 5.805 0 012.281-2.17c.984-.52 2.102-.782 3.354-.782 1.178 0 2.207.239 3.086.716a4.626 4.626 0 012.013 2.057l-2.147 1.253c-.343-.552-.775-.962-1.297-1.23a3.38 3.38 0 00-1.677-.425c-1.044 0-1.909.342-2.594 1.028-.686.671-1.029 1.573-1.029 2.706s.335 2.043 1.006 2.728c.686.671 1.558 1.007 2.617 1.007.611 0 1.17-.134 1.677-.403.522-.283.954-.7 1.297-1.252l2.147 1.252a4.891 4.891 0 01-2.035 2.08c-.88.477-1.901.716-3.064.716zm12.01-12.233c1.759 0 3.101.425 4.025 1.275.94.835 1.409 2.102 1.409 3.802V22h-2.639v-1.454c-.342.522-.834.925-1.476 1.208-.626.268-1.386.402-2.281.402-.894 0-1.677-.148-2.348-.447-.67-.313-1.192-.738-1.565-1.274a3.336 3.336 0 01-.537-1.857c0-1.073.395-1.93 1.186-2.571.805-.656 2.064-.984 3.779-.984h3.086v-.179c0-.835-.254-1.476-.76-1.923-.492-.447-1.23-.671-2.214-.671-.671 0-1.335.104-1.991.313-.641.209-1.185.5-1.632.872l-1.096-2.035c.626-.477 1.379-.842 2.259-1.096a10.06 10.06 0 012.795-.38zm-.38 10.198c.701 0 1.319-.157 1.856-.47.552-.328.939-.79 1.163-1.387V16.88h-2.885c-1.61 0-2.415.53-2.415 1.588 0 .507.201.91.604 1.207.402.299.961.448 1.677.448zM240.862 22v-7.916l-4.026 6.664h-1.207l-3.958-6.687V22h-2.55V10.058h2.93l4.249 7.47 4.45-7.47h2.616L243.389 22h-2.527zm6.276-11.942h2.795v7.872l6.597-7.872h2.55V22h-2.796v-7.872L249.71 22h-2.572V10.058zM0 13.62a10.621 10.621 0 1021.242 0H0z" fill="#1A87D8"/><path d="M32.242 13.621a10.622 10.622 0 10-21.242 0h21.241z" fill="#1A87D8"/></svg>